Coordinates
version=1
nRows=32
nColumns=22
inDegrees=yes

Units are S.I. units (second, meters, Newtons, ...)
If the header above contains a line with 'inDegrees', this indicates whether rotational values are in degrees (yes) or radians (no).

endheader
time	pelvis_tilt	pelvis_list	pelvis_rotation	pelvis_tx	pelvis_ty	pelvis_tz	hip_flexion_r	hip_adduction_r	hip_rotation_r	knee_angle_r	ankle_angle_r	subtalar_angle_r	hip_flexion_l	hip_adduction_l	hip_rotation_l	knee_angle_l	ankle_angle_l	subtalar_angle_l	lumbar_extension	lumbar_bending	lumbar_rotation
      0.01000000	     -0.96511577	     -3.61439710	     -6.48337373	     -1.57920062	      1.02452302	     -0.21994804	      4.02841792	      5.72704420	     -1.78519658	    -11.80999242	      8.23247462	     -2.60416415	      2.84965427	     -3.32817749	     -5.88272470	    -11.15660899	     10.70716878	     -3.27183844	    -10.31399715	      3.16184401	      0.94624133
      0.02000000	     -0.98153205	     -3.60413528	     -6.49886838	     -1.57910362	      1.02450422	     -0.21974265	      4.03618807	      5.72958172	     -1.78575558	    -11.80024300	      8.23240940	     -2.60489526	      2.85630260	     -3.32952383	     -5.88238102	    -11.15241678	     10.70807968	     -3.27277157	    -10.33893064	      3.16987374	      0.94008261
      0.03000000	     -1.03263295	     -3.60276740	     -6.55576448	     -1.57900913	      1.02443711	     -0.21941886	      4.08032965	      5.75651447	     -1.68625786	    -11.79643272	      8.22077196	     -2.63035533	      2.89847497	     -3.35232547	     -5.92956800	    -11.16043549	     10.71615413	     -3.29266460	    -10.33428448	      3.19223606	      0.95387973
      0.04000000	     -1.08878012	     -3.58120312	     -6.61584583	     -1.57889651	      1.02436018	     -0.21906099	      4.14647865	      5.76120795	     -1.63387029	    -11.82091271	      8.23037726	     -2.65666198	      2.94065393	     -3.35466419	     -5.97803375	    -11.15633181	     10.71763810	     -3.29517565	    -10.32873938	      3.19050187	      0.98190236
      0.05000000	     -1.12471448	     -3.56769605	     -6.65346999	     -1.57875328	      1.02431906	     -0.21870444	      4.17964351	      5.77190348	     -1.60319116	    -11.82838486	      8.23395400	     -2.66496998	      2.95755146	     -3.36315512	     -5.99380949	    -11.14481722	     10.71571900	     -3.29129884	    -10.35190702	      3.20063210	      0.97015856
      0.06000000	     -1.18770651	     -3.54824434	     -6.72910983	     -1.57858212	      1.02424151	     -0.21825961	      4.24108687	      5.78460355	     -1.53570080	    -11.83768981	      8.24636313	     -2.68644745	      2.99416666	     -3.37299136	     -6.05828359	    -11.12944726	     10.71066542	     -3.27763617	    -10.34213209	      3.20051645	      1.02628189
      0.07000000	     -1.23626389	     -3.52238967	     -6.78894378	     -1.57838998	      1.02418444	     -0.21781770	      4.28752243	      5.78788547	     -1.49121583	    -11.84866475	      8.24991694	     -2.70338601	      3.01885457	     -3.37460265	     -6.11561118	    -11.11775247	     10.71363864	     -3.26175112	    -10.34990964	      3.19428144	      1.04219285
      0.08000000	     -1.28402959	     -3.49923777	     -6.85682513	     -1.57813271	      1.02413372	     -0.21734234	      4.31954592	      5.79452066	     -1.45581359	    -11.84169966	      8.26556984	     -2.71890298	      3.02569027	     -3.37884315	     -6.16900962	    -11.08447333	     10.70634951	     -3.24393395	    -10.35149136	      3.18888710	      1.09177153
      0.09000000	     -1.32185110	     -3.46177531	     -6.94645436	     -1.57786446	      1.02409757	     -0.21681544	      4.34715341	      5.78858807	     -1.37591965	    -11.84730291	      8.27621715	     -2.74013026	      3.02148371	     -3.36934149	     -6.25787207	    -11.05732175	     10.69553288	     -3.21614481	    -10.36537837	      3.16220353	      1.14781017
      0.10000000	     -1.35302497	     -3.42796470	     -7.03411774	     -1.57753888	      1.02407482	     -0.21627086	      4.35727368	      5.78540102	     -1.31105327	    -11.84031568	      8.29016972	     -2.75913703	      2.99305916	     -3.36237446	     -6.34186872	    -11.00423419	     10.68209655	     -3.18676912	    -10.38171848	      3.13939467	      1.20386671
      0.11000000	     -1.37776569	     -3.39145080	     -7.12273839	     -1.57718737	      1.02406431	     -0.21570328	      4.35399243	      5.77969796	     -1.24133562	    -11.82417537	      8.30230345	     -2.77665289	      2.95267882	     -3.35269081	     -6.43391455	    -10.94433478	     10.66642508	     -3.15587086	    -10.40431062	      3.11179893	      1.25893488
      0.12000000	     -1.40132615	     -3.35996334	     -7.20464686	     -1.57683157	      1.02405479	     -0.21512431	      4.34502971	      5.77979698	     -1.17787135	    -11.80146499	      8.31244360	     -2.79284530	      2.91033674	     -3.34909189	     -6.51969405	    -10.88321916	     10.65174558	     -3.12266571	    -10.43140733	      3.08984914	      1.30792154
      0.13000000	     -1.42930486	     -3.33427228	     -7.27306022	     -1.57648527	      1.02403689	     -0.21455032	      4.33745340	      5.78635231	     -1.12793383	    -11.77299804	      8.31873393	     -2.80636514	      2.87809910	     -3.35258065	     -6.59056132	    -10.82856960	     10.64119243	     -3.09013387	    -10.45873743	      3.07668383	      1.34220390
      0.14000000	     -1.46754705	     -3.31562656	     -7.30798975	     -1.57615264	      1.02399568	     -0.21400688	      4.34148640	      5.79909263	     -1.12855441	    -11.74414847	      8.32470587	     -2.80942158	      2.86945175	     -3.36537898	     -6.61864816	    -10.78780343	     10.64340458	     -3.08178109	    -10.47719012	      3.07786742	      1.32877657
      0.15000000	     -1.50986632	     -3.29967064	     -7.34244076	     -1.57581829	      1.02395270	     -0.21345918	      4.34480352	      5.81720152	     -1.10337582	    -11.70863250	      8.33090240	     -2.81589493	      2.86160813	     -3.38141254	     -6.65924413	    -10.73892852	     10.63945385	     -3.06376325	    -10.49536754	      3.08458662	      1.33058490
      0.16000000	     -1.54408807	     -3.27955301	     -7.35804568	     -1.57552417	      1.02391478	     -0.21292639	      4.35204581	      5.82847629	     -1.10617929	    -11.69166677	      8.33338391	     -2.81651710	      2.86841832	     -3.39281326	     -6.66182282	    -10.72613317	     10.64014991	     -3.06144860	    -10.53408969	      3.08248562	      1.32564138
      0.17000000	     -1.59496896	     -3.27233375	     -7.38051143	     -1.57511250	      1.02385479	     -0.21234694	      4.34921098	      5.85988569	     -1.07797326	    -11.63979698	      8.34436910	     -2.82437882	      2.86158210	     -3.42165590	     -6.69586890	    -10.67001638	     10.64059841	     -3.04014519	    -10.53329307	      3.09960817	      1.30363368
      0.18000000	     -1.63809539	     -3.27281056	     -7.40669153	     -1.57471604	      1.02381027	     -0.21174303	      4.33713477	      5.90237770	     -1.01456846	    -11.58803152	      8.31905503	     -2.86312609	      2.86140891	     -3.46147815	     -6.73629427	    -10.64629179	     10.65819092	     -2.93045848	    -10.55098133	      3.12162288	      1.31835202
      0.19000000	     -1.68302485	     -3.25750590	     -7.40084517	     -1.57425963	      1.02375248	     -0.21116509	      4.32962444	      5.92417518	     -1.01308339	    -11.54442552	      8.34035731	     -2.86817429	      2.85957437	     -3.48224239	     -6.73969277	    -10.60731297	     10.65917358	     -2.91947796	    -10.55387910	      3.12758890	      1.29146533
      0.20000000	     -1.73057107	     -3.24502256	     -7.38942088	     -1.57377183	      1.02369013	     -0.21057809	      4.31853226	      5.95020656	     -1.00803807	    -11.49377954	      8.35928311	     -2.87598741	      2.85885503	     -3.50660489	     -6.73168268	    -10.56861236	     10.66207106	     -2.90183359	    -10.55147386	      3.13940257	      1.26467422
      0.21000000	     -1.77973088	     -3.23309840	     -7.37457878	     -1.57326742	      1.02362455	     -0.20996818	      4.30774266	      5.97845107	     -1.00769921	    -11.44267837	      8.37482693	     -2.88644599	      2.86005292	     -3.53325614	     -6.71781581	    -10.53190062	     10.66654931	     -2.87797809	    -10.54618092	      3.15091416	      1.24205555
      0.22000000	     -1.83153454	     -3.21975329	     -7.36027981	     -1.57275222	      1.02355315	     -0.20932612	      4.30107779	      6.00717136	     -1.01363485	    -11.39545691	      8.38846416	     -2.89895396	      2.86395850	     -3.56080615	     -6.70452064	    -10.49655135	     10.67160086	     -2.84995131	    -10.53814726	      3.15843041	      1.22697313
      0.23000000	     -1.88635982	     -3.20430161	     -7.34866408	     -1.57222520	      1.02347427	     -0.20864310	      4.29993892	      6.03591643	     -1.02274328	    -11.35310364	      8.40217075	     -2.91306659	      2.87047673	     -3.58920951	     -6.69455196	    -10.46266910	     10.67662025	     -2.81967190	    -10.52467414	      3.15939995	      1.22170907
      0.24000000	     -1.94799035	     -3.18657208	     -7.34049100	     -1.57168152	      1.02338047	     -0.20792542	      4.30483119	      6.06507612	     -1.03201436	    -11.31137929	      8.41841380	     -2.93039601	      2.88269982	     -3.61792190	     -6.68624111	    -10.42824458	     10.68227927	     -2.78485606	    -10.50469032	      3.15637933	      1.22589055
      0.25000000	     -2.05088786	     -3.16826160	     -7.33171758	     -1.57117864	      1.02321402	     -0.20717560	      4.36984295	      6.10360397	     -1.01342436	    -11.29740059	      8.43328297	     -2.99775859	      2.95298590	     -3.65438068	     -6.65569436	    -10.41679575	     10.69594317	     -2.65885425	    -10.44298219	      3.15631506	      1.22860066
      0.26000000	     -2.10113633	     -3.14087092	     -7.32188282	     -1.57057835	      1.02312449	     -0.20640113	      4.36059916	      6.12281600	     -1.03916558	    -11.25562103	      8.45027631	     -3.00536114	      2.95905507	     -3.67560566	     -6.66702264	    -10.39820075	     10.70309518	     -2.64620897	    -10.43089414	      3.13291872	      1.24784439
      0.27000000	     -2.16047796	     -3.11830056	     -7.30873137	     -1.56996857	      1.02301502	     -0.20561293	      4.35836149	      6.15064452	     -1.04571855	    -11.21284497	      8.47948222	     -3.02022855	      2.97296239	     -3.70276091	     -6.65581397	    -10.37694175	     10.71330622	     -2.62250192	    -10.41404395	      3.11804689	      1.27018180
      0.28000000	     -2.25204896	     -3.10312011	     -7.28879438	     -1.56937408	      1.02284292	     -0.20480015	      4.39958697	      6.19472802	     -1.02508652	    -11.19117633	      8.52043506	     -3.08053691	      3.03346788	     -3.74457591	     -6.61311424	    -10.37822743	     10.74772562	     -2.52354348	    -10.36564533	      3.11564486	      1.27682309
      0.29000000	     -2.29940032	     -3.07690842	     -7.26765702	     -1.56871382	      1.02274219	     -0.20396838	      4.38224524	      6.21838554	     -1.04792048	    -11.14806908	      8.53938860	     -3.08884873	      3.04645991	     -3.76993307	     -6.60669651	    -10.38208353	     10.75406152	     -2.50877601	    -10.36372798	      3.08875427	      1.31606543
      0.30000000	     -2.36325508	     -3.07151936	     -7.23597094	     -1.56804760	      1.02260204	     -0.20310784	      4.38089538	      6.27051174	     -1.05016453	    -11.11203819	      8.58678622	     -3.12697149	      3.08115587	     -3.82231980	     -6.56328014	    -10.39784802	     10.79910328	     -2.44024565	    -10.34883049	      3.08840852	      1.34104887
      0.31000000	     -2.40620623	     -3.04843535	     -7.20875692	     -1.56736284	      1.02249707	     -0.20221173	      4.35961531	      6.30053530	     -1.07262272	    -11.07449218	      8.60884706	     -3.13599721	      3.09920890	     -3.85510373	     -6.54148836	    -10.42297070	     10.80936290	     -2.42223460	    -10.35747252	      3.05707183	      1.39785362
      0.32000000	     -2.45976449	     -3.05370461	     -7.16836648	     -1.56668100	      1.02235672	     -0.20129123	      4.35262524	      6.36559542	     -1.09366199	    -11.05227999	      8.66390038	     -3.17496352	      3.13830268	     -3.92338446	     -6.49429978	    -10.47078514	     10.88142316	     -2.34436227	    -10.36254025	      3.06147279	      1.44488303
